<?xml version="1.0" encoding="iso-8859-1"?>
<!-- Generator: Adobe Illustrator 16.0.0, SVG Export Plug-In . SVG Version: 6.00 Build 0)  -->
<!DOCTYPE svg PUBLIC "-//W3C//DTD SVG 1.1//EN" "http://www.w3.org/Graphics/SVG/1.1/DTD/svg11.dtd">
<svg xmlns="http://www.w3.org/2000/svg" xmlns:xlink="http://www.w3.org/1999/xlink" version="1.1" id="Capa_1" x="0px" y="0px" width="50px" height="50px" viewBox="0 0 39.282 39.282" style="enable-background:new 0 0 39.282 39.282;" xml:space="preserve">
<g>
	<path d="M36.719,26.741c0-0.185-0.101-0.355-0.261-0.449l-2.126-1.229c-0.16-0.094-0.361-0.094-0.521,0l-1.866,1.078l-1.464-0.847   l1.47-0.849c0.251-0.145,0.336-0.462,0.192-0.712c-0.146-0.25-0.462-0.334-0.713-0.191l-1.99,1.15l-1.845-1.064l3.982-2.301   c0.25-0.144,0.336-0.462,0.192-0.712c-0.146-0.249-0.463-0.334-0.713-0.191l-4.445,2.565l-2.452-3.351l2.452-3.352l4.447,2.566   c0.081,0.046,0.171,0.069,0.261,0.069c0.179,0,0.354-0.094,0.45-0.26c0.146-0.249,0.061-0.568-0.19-0.711l-3.987-2.301l1.848-1.065   l1.989,1.15c0.083,0.047,0.173,0.07,0.261,0.07c0.181,0,0.355-0.093,0.451-0.261c0.146-0.249,0.061-0.567-0.191-0.711l-1.469-0.849   l1.461-0.844l1.865,1.077c0.08,0.045,0.172,0.069,0.261,0.069c0.09,0,0.179-0.023,0.261-0.069l2.128-1.226   c0.159-0.093,0.261-0.265,0.261-0.451l-0.002-1.304l0.002-1.152c0-0.187-0.1-0.36-0.261-0.452L34.33,8.404   c-0.163-0.093-0.362-0.093-0.521,0L31.682,9.63c-0.16,0.092-0.26,0.265-0.26,0.452v2.156l-1.461,0.844v-1.699   c0-0.288-0.234-0.521-0.521-0.521c-0.289,0-0.521,0.233-0.521,0.521v2.3l-1.845,1.064v-4.602c0-0.287-0.234-0.521-0.521-0.521   c-0.288,0-0.521,0.233-0.521,0.521v5.132l-4.134,0.45l-1.675-3.801l4.447-2.567c0.248-0.144,0.334-0.462,0.19-0.711   c-0.144-0.251-0.462-0.335-0.711-0.191l-3.989,2.301V8.628l1.993-1.151c0.248-0.144,0.334-0.463,0.19-0.712   c-0.146-0.251-0.466-0.335-0.711-0.19l-1.473,0.849V5.732l1.865-1.076c0.16-0.093,0.261-0.265,0.261-0.451V1.75   c0-0.186-0.101-0.357-0.259-0.451l-2.127-1.229c-0.16-0.093-0.361-0.093-0.521,0l-2.128,1.229c-0.16,0.093-0.26,0.265-0.26,0.451   v2.456c0,0.186,0.102,0.358,0.261,0.451l1.867,1.076v1.689l-1.469-0.848c-0.248-0.143-0.566-0.06-0.711,0.19   c-0.146,0.249-0.061,0.568,0.19,0.712l1.99,1.149v2.131l-3.984-2.3c-0.248-0.142-0.568-0.059-0.711,0.191   c-0.146,0.249-0.061,0.567,0.19,0.711l4.444,2.564l-1.675,3.803l-4.131-0.45l-0.001-5.132c0-0.287-0.233-0.521-0.521-0.521   s-0.521,0.233-0.521,0.521l0.001,4.601l-1.847-1.065v-2.3c0-0.288-0.233-0.521-0.521-0.521s-0.521,0.233-0.521,0.521v1.698   L7.86,12.234l0.002-1.006l-0.002-1.15c0-0.186-0.1-0.357-0.26-0.45L5.474,8.401c-0.159-0.092-0.358-0.092-0.519,0l-2.13,1.228   c-0.159,0.092-0.26,0.264-0.26,0.451v2.455c0,0.186,0.101,0.358,0.26,0.451l2.126,1.229c0.082,0.045,0.171,0.069,0.26,0.069   c0.09,0,0.181-0.023,0.261-0.069l1.865-1.079l1.465,0.846l-1.471,0.85c-0.25,0.144-0.336,0.463-0.192,0.711   c0.097,0.168,0.273,0.261,0.452,0.261c0.087,0,0.177-0.022,0.261-0.07l1.992-1.15l1.846,1.065l-3.987,2.301   c-0.249,0.144-0.333,0.463-0.191,0.711c0.097,0.168,0.273,0.26,0.452,0.26c0.088,0,0.178-0.021,0.26-0.069l4.446-2.566l2.452,3.352   l-2.452,3.354l-4.445-2.566c-0.249-0.143-0.567-0.06-0.711,0.19c-0.145,0.25-0.061,0.567,0.191,0.713l3.984,2.299l-1.845,1.065   l-1.992-1.151c-0.249-0.142-0.568-0.059-0.713,0.192c-0.145,0.247-0.06,0.568,0.192,0.711l1.471,0.85l-1.465,0.846L5.47,25.067   c-0.161-0.094-0.361-0.092-0.521,0l-2.122,1.226c-0.161,0.093-0.262,0.266-0.262,0.45L2.562,27.9l0.002,0.146l-0.002,1.15   c0,0.187,0.101,0.359,0.261,0.452l2.128,1.229c0.082,0.047,0.171,0.07,0.26,0.07c0.09,0,0.181-0.023,0.261-0.07l2.126-1.229   c0.159-0.093,0.26-0.264,0.26-0.452l-0.002-1.305l0.002-0.849l1.465-0.846v1.699c0,0.288,0.234,0.521,0.521,0.521   s0.521-0.232,0.521-0.521v-2.302l1.845-1.063v4.602c0,0.289,0.233,0.521,0.521,0.521c0.287,0,0.521-0.232,0.521-0.521v-5.131   l4.131-0.451l1.675,3.804l-4.444,2.564c-0.248,0.144-0.333,0.462-0.19,0.712c0.096,0.167,0.271,0.26,0.451,0.26   c0.088,0,0.18-0.022,0.26-0.069l3.984-2.299v2.133l-1.99,1.149c-0.248,0.144-0.333,0.462-0.191,0.711   c0.144,0.25,0.461,0.334,0.711,0.192l1.469-0.849v1.69l-1.867,1.075c-0.159,0.093-0.261,0.266-0.261,0.451v2.455   c0,0.186,0.099,0.358,0.26,0.452l2.128,1.229c0.08,0.047,0.171,0.069,0.26,0.069c0.09,0,0.18-0.022,0.261-0.069l2.127-1.229   c0.158-0.094,0.258-0.265,0.258-0.452v-2.455c0-0.186-0.1-0.358-0.26-0.451l-1.863-1.078v-1.692l1.473,0.85   c0.081,0.047,0.171,0.068,0.26,0.068c0.18,0,0.354-0.091,0.451-0.26c0.145-0.248,0.059-0.568-0.19-0.712l-1.993-1.152v-2.13   l3.987,2.301c0.248,0.145,0.567,0.062,0.71-0.19c0.146-0.249,0.06-0.568-0.189-0.71l-4.447-2.569l1.675-3.799L26.029,24v5.133   c0,0.287,0.233,0.521,0.521,0.521s0.521-0.234,0.521-0.521v-4.602l1.845,1.065v2.302c0,0.286,0.235,0.521,0.521,0.521   c0.289,0,0.521-0.234,0.521-0.521v-1.701l1.465,0.847v2.154c0,0.188,0.1,0.358,0.26,0.451l2.126,1.229   c0.079,0.045,0.171,0.069,0.261,0.069s0.179-0.022,0.261-0.069l2.126-1.229c0.159-0.093,0.261-0.264,0.261-0.451l0.002-1.307   v-1.151H36.719z M32.464,11.635v-1.253l1.605-0.926l1.105,0.638l0.5,0.287v0.579l0.002,1.279l-1.607,0.926l-1.084-0.626   l-0.521-0.301V11.635L32.464,11.635z M3.604,10.958V10.38l0.499-0.287l1.106-0.638l1.607,0.925v1.253v0.601l-0.521,0.301   l-1.084,0.627l-1.605-0.928v-1.277H3.604z M6.816,28.899l-1.604,0.929l-1.116-0.646L3.605,28.9l0.002-0.578v-0.279l-0.002-0.147   v-0.85L5.21,26.12l1.084,0.624l0.521,0.302v0.602V28.899L6.816,28.899z M20.162,24.912l-0.521,1.181l-0.521-1.181l-1.093-2.478   l-2.692,0.291l-1.284,0.141l0.763-1.042l1.6-2.185l-1.6-2.186l-0.763-1.042l1.284,0.14l2.692,0.292l1.093-2.478l0.521-1.181   l0.521,1.181l1.092,2.478l2.694-0.292l1.283-0.14l-0.763,1.042l-1.601,2.186l1.601,2.186l0.763,1.042l-1.283-0.14l-2.694-0.292   L20.162,24.912z M18.035,2.05l1.106-0.639l0.499-0.289l0.499,0.289l1.107,0.639v1.854L20.162,4.53l-0.521,0.3l-0.521-0.3   l-1.085-0.626V2.05z M21.246,37.229l-1.106,0.639l-0.499,0.287l-0.499-0.287l-1.106-0.639v-1.854l1.084-0.626l0.521-0.301   l0.521,0.301l1.084,0.626V37.229z M32.466,27.892v-0.247l-0.003-0.6l0.521-0.302l1.084-0.627l1.607,0.929l-0.002,1.276V28.9   l-0.49,0.282l-1.115,0.646l-1.605-0.929L32.466,27.892z" fill="#FFFFFF"/>
</g>
<g>
</g>
<g>
</g>
<g>
</g>
<g>
</g>
<g>
</g>
<g>
</g>
<g>
</g>
<g>
</g>
<g>
</g>
<g>
</g>
<g>
</g>
<g>
</g>
<g>
</g>
<g>
</g>
<g>
</g>
</svg>
